<svg width="24" height="24" viewBox="0 0 24 24" fill="none" xmlns="http://www.w3.org/2000/svg">
<path d="M12 1.4502C12.3038 1.4502 12.5498 1.69624 12.5498 2V5C12.5496 5.30359 12.3036 5.5498 12 5.5498C11.6964 5.5498 11.4504 5.30359 11.4502 5V2.5498H8C7.69637 2.5498 7.45039 2.30359 7.4502 2C7.4502 1.69624 7.69624 1.4502 8 1.4502H12Z" fill="white"/>
<path d="M18 5.5C18.663 5.5 19.2987 5.76358 19.7676 6.23242C20.2364 6.70126 20.5 7.33696 20.5 8V16C20.5 16.663 20.2364 17.2987 19.7676 17.7676C19.2987 18.2364 18.663 18.5 18 18.5H8.20703L4.35352 22.3535C4.21052 22.4965 3.99543 22.5393 3.80859 22.4619C3.62179 22.3845 3.5 22.2022 3.5 22V8C3.5 7.33696 3.76358 6.70126 4.23242 6.23242C4.70126 5.76358 5.33696 5.5 6 5.5H18Z" stroke="white" stroke-linecap="round" stroke-linejoin="round"/>
<path d="M3 11.625C3.20711 11.625 3.375 11.7929 3.375 12C3.375 12.2071 3.20711 12.375 3 12.375H1C0.792893 12.375 0.625 12.2071 0.625 12C0.625 11.7929 0.792893 11.625 1 11.625H3Z" stroke="white" stroke-width="0.75" stroke-linecap="round" stroke-linejoin="round"/>
<path d="M8.625 13V11C8.625 10.7929 8.79289 10.625 9 10.625C9.20711 10.625 9.375 10.7929 9.375 11V13C9.375 13.2071 9.20711 13.375 9 13.375C8.79289 13.375 8.625 13.2071 8.625 13Z" stroke="white" stroke-width="0.75" stroke-linecap="round" stroke-linejoin="round"/>
<path d="M14.625 13V11C14.625 10.7929 14.7929 10.625 15 10.625C15.2071 10.625 15.375 10.7929 15.375 11V13C15.375 13.2071 15.2071 13.375 15 13.375C14.7929 13.375 14.625 13.2071 14.625 13Z" stroke="white" stroke-width="0.75" stroke-linecap="round" stroke-linejoin="round"/>
<path d="M23 11.625C23.2071 11.625 23.375 11.7929 23.375 12C23.375 12.2071 23.2071 12.375 23 12.375H21C20.7929 12.375 20.625 12.2071 20.625 12C20.625 11.7929 20.7929 11.625 21 11.625H23Z" stroke="white" stroke-width="0.75" stroke-linecap="round" stroke-linejoin="round"/>
</svg>
