<svg width="35" height="35" viewBox="0 0 35 35" fill="none" xmlns="http://www.w3.org/2000/svg">
<path fill-rule="evenodd" clip-rule="evenodd" d="M9.11467 5.10449C5.10425 5.10449 5.10425 5.40783 5.10425 9.11491V9.15137C5.10425 10.7657 5.10425 11.9324 5.49946 12.4253C5.88591 12.9037 7.03362 13.1253 9.11467 13.1253C11.1957 13.1253 12.3434 12.9022 12.7299 12.4239C13.1251 11.9324 13.1251 10.7657 13.1251 9.14991C13.1251 5.40783 13.1251 5.10449 9.11467 5.10449ZM9.11466 15.3128C6.65591 15.3128 4.81112 15.0547 3.79758 13.7962C2.91675 12.7039 2.91675 11.2135 2.91675 9.15137L4.0105 9.11491H2.91675C2.91675 4.92949 3.18071 2.91699 9.11466 2.91699C15.0486 2.91699 15.3126 4.92949 15.3126 9.11491C15.3126 11.212 15.3126 12.7039 14.4317 13.7962C13.4182 15.0547 11.5734 15.3128 9.11466 15.3128Z" fill="#303030"/>
<path fill-rule="evenodd" clip-rule="evenodd" d="M25.1564 5.10449C21.146 5.10449 21.146 5.40783 21.146 9.11491V9.15137C21.146 10.7657 21.146 11.9324 21.5412 12.4253C21.9277 12.9037 23.0754 13.1253 25.1564 13.1253C27.2375 13.1253 28.3852 12.9022 28.7716 12.4239C29.1668 11.9324 29.1668 10.7657 29.1668 9.14991C29.1668 5.40783 29.1668 5.10449 25.1564 5.10449ZM25.1564 15.3128C22.6977 15.3128 20.8529 15.0547 19.8393 13.7962C18.9585 12.7039 18.9585 11.2135 18.9585 9.15137L20.0522 9.11491H18.9585C18.9585 4.92949 19.2225 2.91699 25.1564 2.91699C31.0904 2.91699 31.3543 4.92949 31.3543 9.11491C31.3543 11.212 31.3543 12.7039 30.4735 13.7962C29.46 15.0547 27.6152 15.3128 25.1564 15.3128Z" fill="#303030"/>
<path fill-rule="evenodd" clip-rule="evenodd" d="M9.11467 21.1465C5.10425 21.1465 5.10425 21.4498 5.10425 25.1569V25.1934C5.10425 26.8077 5.10425 27.9744 5.49946 28.4673C5.88591 28.9457 7.03362 29.1673 9.11467 29.1673C11.1957 29.1673 12.3434 28.9442 12.7299 28.4659C13.1251 27.9744 13.1251 26.8077 13.1251 25.1919C13.1251 21.4498 13.1251 21.1465 9.11467 21.1465ZM9.11466 31.3548C6.65591 31.3548 4.81112 31.0967 3.79758 29.8382C2.91675 28.7459 2.91675 27.2554 2.91675 25.1934L4.0105 25.1569H2.91675C2.91675 20.9715 3.18071 18.959 9.11466 18.959C15.0486 18.959 15.3126 20.9715 15.3126 25.1569C15.3126 27.254 15.3126 28.7459 14.4317 29.8382C13.4182 31.0967 11.5734 31.3548 9.11466 31.3548Z" fill="#303030"/>
<path fill-rule="evenodd" clip-rule="evenodd" d="M25.1564 21.1465C21.146 21.1465 21.146 21.4498 21.146 25.1569V25.1934C21.146 26.8077 21.146 27.9744 21.5412 28.4673C21.9277 28.9457 23.0754 29.1673 25.1564 29.1673C27.2375 29.1673 28.3852 28.9442 28.7716 28.4659C29.1668 27.9744 29.1668 26.8077 29.1668 25.1919C29.1668 21.4498 29.1668 21.1465 25.1564 21.1465ZM25.1564 31.3548C22.6977 31.3548 20.8529 31.0967 19.8393 29.8382C18.9585 28.7459 18.9585 27.2554 18.9585 25.1934L20.0522 25.1569H18.9585C18.9585 20.9715 19.2225 18.959 25.1564 18.959C31.0904 18.959 31.3543 20.9715 31.3543 25.1569C31.3543 27.254 31.3543 28.7459 30.4735 29.8382C29.46 31.0967 27.6152 31.3548 25.1564 31.3548Z" fill="#303030"/>
</svg>
