<svg width="20" height="20" viewBox="0 0 20 20" fill="none" xmlns="http://www.w3.org/2000/svg">
<mask id="mask0_138_1940" style="mask-type:luminance" maskUnits="userSpaceOnUse" x="1" y="1" width="18" height="18">
<path fill-rule="evenodd" clip-rule="evenodd" d="M1.66699 1.66675H18.3V18.2916H1.66699V1.66675Z" fill="white"/>
</mask>
<g mask="url(#mask0_138_1940)">
<path fill-rule="evenodd" clip-rule="evenodd" d="M6.37533 2.9165C4.27449 2.9165 2.91699 4.35567 2.91699 6.58234V13.3757C2.91699 15.6032 4.27449 17.0415 6.37533 17.0415H13.5837C15.6895 17.0415 17.0503 15.6032 17.0503 13.3757V6.58234C17.0503 4.35567 15.6895 2.9165 13.5837 2.9165H6.37533ZM13.5837 18.2915H6.37533C3.55866 18.2915 1.66699 16.3157 1.66699 13.3757V6.58234C1.66699 3.64234 3.55866 1.6665 6.37533 1.6665H13.5837C16.4045 1.6665 18.3003 3.64234 18.3003 6.58234V13.3757C18.3003 16.3157 16.4045 18.2915 13.5837 18.2915Z" fill="white"/>
</g>
<path fill-rule="evenodd" clip-rule="evenodd" d="M4.40113 14.317C4.24613 14.317 4.09196 14.2603 3.97113 14.1453C3.72029 13.9086 3.71029 13.512 3.94779 13.2628L5.22113 11.9186C5.89529 11.2028 7.03279 11.1678 7.75196 11.8428L8.55029 12.6528C8.77279 12.8778 9.13446 12.882 9.35779 12.662C9.44196 12.5628 11.257 10.3586 11.257 10.3586C11.602 9.94031 12.0886 9.68198 12.6295 9.62864C13.1711 9.58114 13.697 9.73864 14.1161 10.0828C14.152 10.112 14.1845 10.1403 16.0145 12.0195C16.2553 12.2661 16.2511 12.662 16.0036 12.9028C15.757 13.1453 15.3603 13.1378 15.1195 12.8911C15.1195 12.8911 13.412 11.1386 13.2903 11.0203C13.1611 10.9145 12.9536 10.8528 12.7495 10.8728C12.542 10.8936 12.3553 10.9928 12.2228 11.1536C10.2861 13.5028 10.2628 13.5253 10.2311 13.5561C9.51613 14.2578 8.36196 14.2461 7.65946 13.5295C7.65946 13.5295 6.88446 12.7428 6.87113 12.727C6.67863 12.5486 6.33529 12.5603 6.12946 12.7778L4.85446 14.122C4.73113 14.252 4.56613 14.317 4.40113 14.317Z" fill="white"/>
<path fill-rule="evenodd" clip-rule="evenodd" d="M7.13124 6.77393C6.67041 6.77393 6.29541 7.14893 6.29541 7.61059C6.29541 8.07226 6.67041 8.44809 7.13208 8.44809C7.59374 8.44809 7.96958 8.07226 7.96958 7.61059C7.96958 7.14976 7.59374 6.77476 7.13124 6.77393ZM7.13208 9.69809C5.98124 9.69809 5.04541 8.76143 5.04541 7.61059C5.04541 6.45976 5.98124 5.52393 7.13208 5.52393C8.28374 5.52476 9.21958 6.46143 9.21958 7.61059C9.21958 8.76143 8.28291 9.69809 7.13208 9.69809Z" fill="white"/>
</svg>
