<svg width="35" height="35" viewBox="0 0 35 35" fill="none" xmlns="http://www.w3.org/2000/svg">
<mask id="mask0_138_2459" style="mask-type:luminance" maskUnits="userSpaceOnUse" x="2" y="4" width="30" height="29">
<path fill-rule="evenodd" clip-rule="evenodd" d="M2.9165 4.37598H31.3525V32.812H2.9165V4.37598Z" fill="white"/>
</mask>
<g mask="url(#mask0_138_2459)">
<path fill-rule="evenodd" clip-rule="evenodd" d="M15.757 21.6099L21.0902 30.2622C21.3235 30.6413 21.6881 30.637 21.8354 30.6165C21.9827 30.5961 22.337 30.5057 22.4654 30.0755L29.1343 7.55154C29.251 7.15341 29.0366 6.88216 28.9404 6.78591C28.847 6.68966 28.5802 6.48404 28.1937 6.59341L5.65372 13.1938C5.22642 13.3192 5.13309 13.678 5.11267 13.8253C5.09226 13.9755 5.08642 14.3474 5.46413 14.5851L14.2156 20.0582L21.9477 12.2445C22.372 11.8157 23.0648 11.8113 23.495 12.2357C23.9252 12.6601 23.9281 13.3542 23.5037 13.783L15.757 21.6099ZM21.7216 32.8128C20.7066 32.8128 19.7762 32.2965 19.2279 31.4099L13.5739 22.2355L4.30476 16.4386C3.3058 15.813 2.78372 14.6988 2.94559 13.5278C3.10601 12.3567 3.90955 11.4263 5.0383 11.0953L27.5783 4.49487C28.6152 4.19154 29.7264 4.47883 30.4906 5.24008C31.2548 6.00862 31.5391 7.13154 31.23 8.17279L24.561 30.6953C24.227 31.8284 23.2937 32.629 22.1256 32.7851C21.9885 32.8026 21.8558 32.8128 21.7216 32.8128Z" fill="#303030"/>
</g>
</svg>
